<?xml version="1.0"?>
<svg xmlns="http://www.w3.org/2000/svg" xmlns:xlink="http://www.w3.org/1999/xlink" viewBox="0 0 512 512" width="512" height="512"><defs><linearGradient id="linear-gradient" x1="84.77" y1="429.407" x2="427.23" y2="86.947" gradientUnits="userSpaceOnUse"><stop offset="0" stop-color="#41dfd0"/><stop offset="1" stop-color="#ee83ef"/></linearGradient></defs><g id="gradient"><path d="M497.176,210.2c-3.216-16.166-14.76-32.391-34.043-37.828,9.789-17.487,6.48-37.114-2.674-50.814s-26.012-24.27-45.929-21.909c2.358-19.908-8.212-36.779-21.915-45.935s-33.33-12.463-50.819-2.671C336.354,31.758,320.134,20.216,303.973,17s-35.542,1.235-47.966,16.987c-12.41-15.744-31.82-20.2-47.98-16.987S175.646,31.757,170.2,51.047c-17.489-9.791-37.119-6.483-50.819,2.671S95.112,79.746,97.467,99.646C77.56,97.3,60.7,107.861,51.541,121.562s-12.459,33.306-2.66,50.816c-19.3,5.438-30.841,21.661-34.057,37.826s1.245,35.578,16.974,47.978c-15.736,12.41-20.188,31.808-16.974,47.967s14.76,32.391,34.043,37.829c-9.789,17.487-6.48,37.114,2.674,50.814S77.558,419.057,97.47,416.7c-2.358,19.908,8.212,36.779,21.915,45.936s33.329,12.461,50.819,2.671c5.442,19.289,21.662,30.831,37.823,34.046a51.442,51.442,0,0,0,10.012.979c13.639,0,28.041-5.37,37.963-17.956,12.411,15.736,31.813,20.189,47.971,16.977S336.354,484.6,341.8,465.307c17.49,9.794,37.119,6.483,50.819-2.671s24.273-26.029,21.918-45.928a47.325,47.325,0,0,0,5.553.329c17.465,0,32.083-9.839,40.373-22.245,9.149-13.692,12.459-33.307,2.66-50.816,19.3-5.439,30.841-21.662,34.057-37.827s-1.245-35.578-16.974-47.977C495.938,245.762,500.39,226.363,497.176,210.2ZM461.21,250.792A8.008,8.008,0,0,0,461.3,265.6c18.867,7.655,22.663,24.947,20.18,37.428-2.47,12.419-12.5,26.858-32.742,26.858h-.308a8.007,8.007,0,0,0-5.6,13.715c14.5,14.294,11.391,31.721,4.32,42.3s-21.979,20.129-40.741,12.195a8.007,8.007,0,0,0-10.491,10.5c7.928,18.754-1.616,33.665-12.2,40.735s-28.009,10.183-42.3-4.321c-.04-.039-.1-.1-.137-.135a8.008,8.008,0,0,0-13.579,5.816c.147,20.362-14.375,30.486-26.856,32.968s-29.773-1.312-37.458-20.249a8,8,0,0,0-7.4-4.935h-.025a8.014,8.014,0,0,0-7.393,5c-7.656,18.869-24.948,22.661-37.43,20.181s-27-12.606-26.857-32.9a8.007,8.007,0,0,0-13.6-5.869c-.04.038-.079.078-.119.117-14.294,14.5-31.722,11.39-42.3,4.321s-20.125-21.981-12.171-40.8A8.007,8.007,0,0,0,105.581,398.1c-18.756,7.927-33.666-1.615-40.736-12.2s-10.181-28.008,4.3-42.284a8.006,8.006,0,0,0-5.6-13.733h-.365c-20.155,0-30.191-14.44-32.661-26.858-2.483-12.481,1.313-29.773,20.273-37.466a8.008,8.008,0,0,0-.093-14.808c-18.867-7.655-22.663-24.947-20.18-37.429,2.47-12.419,12.5-26.857,32.742-26.857h.308a8.007,8.007,0,0,0,5.6-13.715c-14.5-14.294-11.391-31.722-4.32-42.3s21.982-20.126,40.741-12.194a8.007,8.007,0,0,0,10.491-10.5c-7.928-18.754,1.616-33.665,12.2-40.736s28.009-10.181,42.3,4.322l.137.135a8.008,8.008,0,0,0,13.579-5.817c-.147-20.361,14.375-30.485,26.856-32.968s29.773,1.313,37.4,20.118l.01.023a7.994,7.994,0,0,0,7.408,5.044H256a8.017,8.017,0,0,0,7.418-5c7.656-18.868,24.947-22.66,37.43-20.181s27,12.607,26.857,32.9a8.007,8.007,0,0,0,13.6,5.869c.04-.038.079-.078.119-.117,14.294-14.5,31.722-11.391,42.3-4.322S403.851,89,395.9,107.818a8.008,8.008,0,0,0,10.522,10.437c18.757-7.929,33.666,1.614,40.736,12.2s10.181,28.009-4.3,42.284a8.007,8.007,0,0,0,5.6,13.734c.123,0,.243,0,.365,0,20.155,0,30.191,14.439,32.661,26.857C483.966,225.807,480.17,243.1,461.21,250.792ZM408,232H295.231a31.954,31.954,0,0,1-31.044-24.239l-.187-.745V176a8,8,0,0,0-8-8H242.286A34.325,34.325,0,0,0,208,202.286V232H160.452a24.2,24.2,0,0,0-24.425,22.851,23.959,23.959,0,0,0,11.065,21.375A23.96,23.96,0,0,0,150.126,304a23.956,23.956,0,0,0-.007,31.991,23.8,23.8,0,0,0-6.092,17.159A24.2,24.2,0,0,0,168.452,376H408a8,8,0,0,0,8-8V240A8,8,0,0,0,408,232ZM288,360H168.452a8.328,8.328,0,0,1-8.443-7.6A8,8,0,0,1,168,344a8,8,0,0,0,0-16,8,8,0,0,1,0-16,8,8,0,0,0,0-16,8,8,0,0,1,0-16,8,8,0,0,0,0-16h-8a8,8,0,0,1-7.991-8.4,8.328,8.328,0,0,1,8.443-7.6H216a8,8,0,0,0,8-8V202.286A18.307,18.307,0,0,1,242.286,184H248v24a7.977,7.977,0,0,0,.239,1.94l.425,1.7A47.924,47.924,0,0,0,288,247.458Zm48,0H304V248h32Zm64,0H352V248h48ZM229.483,127.461l.388,16.527a8,8,0,0,0,10.291,7.477L256,146.727l15.838,4.738a8,8,0,0,0,10.291-7.477l.388-16.527,9.4-13.6a8,8,0,0,0-3.931-12.1l-15.6-5.476L262.36,83.147a8,8,0,0,0-12.72,0L239.612,96.289l-15.6,5.476a8,8,0,0,0-3.931,12.1Zm17.687-16.867a7.994,7.994,0,0,0,3.71-2.7l5.12-6.709,5.12,6.709a7.994,7.994,0,0,0,3.71,2.7l7.963,2.8-4.8,6.943a8,8,0,0,0-1.417,4.361l-.2,8.438-8.086-2.419a7.992,7.992,0,0,0-4.586,0l-8.086,2.419-.2-8.438a8,8,0,0,0-1.417-4.361l-4.8-6.943ZM139.208,175.789a8,8,0,0,0,10.291,7.477l15.837-4.739,15.838,4.739a8,8,0,0,0,10.291-7.477l.388-16.527,9.4-13.6a8,8,0,0,0-3.931-12.1l-15.6-5.475L171.7,114.948a8,8,0,0,0-12.72,0L148.948,128.09l-15.6,5.475a8,8,0,0,0-3.931,12.1l9.4,13.6Zm17.3-33.394a8.006,8.006,0,0,0,3.71-2.7l5.12-6.709,5.12,6.709a8.011,8.011,0,0,0,3.71,2.7l7.963,2.794-4.8,6.944a8,8,0,0,0-1.417,4.361l-.2,8.438-8.086-2.419a8,8,0,0,0-4.587,0l-8.084,2.419-.2-8.438a7.991,7.991,0,0,0-1.417-4.361l-4.8-6.944Zm163.641,16.867.388,16.527a8,8,0,0,0,10.291,7.477l15.838-4.739,15.837,4.739a8,8,0,0,0,10.291-7.477l.388-16.527,9.4-13.6a8,8,0,0,0-3.931-12.1l-15.6-5.475-10.028-13.142a8,8,0,0,0-12.72,0L330.276,128.09l-15.6,5.475a8,8,0,0,0-3.931,12.1ZM337.834,142.4a8.011,8.011,0,0,0,3.71-2.7l5.12-6.709,5.12,6.709a8.006,8.006,0,0,0,3.71,2.7l7.963,2.794-4.8,6.944a7.991,7.991,0,0,0-1.417,4.361l-.2,8.438-8.084-2.419a8,8,0,0,0-4.587,0l-8.086,2.419-.2-8.438a8,8,0,0,0-1.417-4.361l-4.8-6.944Z" style="fill:url(#linear-gradient)"/></g></svg>
